<svg width="150" height="150" viewBox="0 0 150 150" fill="none" xmlns="http://www.w3.org/2000/svg">
<circle cx="75" cy="75" r="75" fill="white" fill-opacity="0.1"/>
<path fill-rule="evenodd" clip-rule="evenodd" d="M46.6593 29.035C54.1803 29.035 30.8233 45.907 32.0276 54.6582C32.5258 58.2783 35.1678 61.7412 34.5023 65.3336C33.5989 70.2109 24.2329 77.6159 25.2818 84.0288C25.4102 84.814 28.667 86.5313 33.4643 85.8635C33.518 85.856 33.8171 85.9539 33.8467 86.0193C34.5777 87.6364 35.4335 88.6144 32.5154 92.9499C31.9911 93.729 32.6658 98.2553 32.5154 99.2916C32.3932 100.134 25.5869 104.009 27.0469 108.706C27.8998 111.449 30.1735 113.526 32.005 115.725C37.0711 121.809 43.5535 120.717 50.8044 121.241C52.5197 121.364 54.4959 120.116 55.959 121.03C61.7486 124.647 61.6036 135.084 70.6959 131.113C80.1777 126.972 89.9585 119.323 93.5821 109.332C95.1981 104.876 92.4896 100.896 93.5821 99.2916C95.039 97.1516 111.784 74.9948 97.5999 71.3515C95.7737 70.8824 89.3838 72.9461 85.9313 76.2034C82.9646 79.0023 82.054 84.7428 82.0912 85.8197C82.1462 87.4097 82.9434 88.9117 83.0094 90.5012C83.0783 92.1569 82.741 95.0253 81.0883 95.4497C80.5486 95.5883 79.8685 96.5382 79.0165 95.6885C75.1893 91.8717 80.2052 80.4732 78.7852 74.8972C76.9558 67.7131 72.9689 68.9821 73.0367 62.2258C73.0647 59.4403 73.2214 56.4907 74.4323 53.9888C76.0117 50.7257 79.8084 48.8367 81.1486 45.4659C83.8183 38.7515 82.3416 27.4614 72.7602 27.0584C68.5143 26.8798 64.4564 28.9733 60.2337 29.4563C57.2835 29.7938 54.2959 29.4921 51.327 29.51L46.6593 29.035Z" fill="#EBD5B8"/>
<path fill-rule="evenodd" clip-rule="evenodd" d="M45.8379 28.7806C45.8379 22.7334 52.2613 20.3333 57.644 19.4543C72.5599 17.0187 88.8469 16.1839 98.4462 29.0393C105.454 38.4241 101.321 30.8404 105.454 41.2595C106.393 43.6273 108.384 45.4268 109.626 47.6478C110.044 48.3967 109.755 49.5455 110.401 50.1062C111.789 51.3112 114.091 51.2088 115.312 52.5858C116.264 53.6588 119.86 59.2133 118.889 62.2462C117.225 67.4457 114.989 60.3324 111.155 67.0976C109.904 69.3045 111.642 72.1793 111.5 74.7179C111.281 78.6046 108.203 82.1539 110.087 86.3367C110.747 87.8013 113.325 86.9933 114.58 87.9845C115.992 89.0995 116.474 91.0964 117.739 92.3792C120.64 95.3212 126.997 94.131 124.029 100.823C120.926 107.817 111.69 102.957 106.882 104.275C104.091 105.039 104.724 108.679 102.466 110.09C99.335 112.046 94.1262 109.243 92.9519 106.112C87.7642 92.2805 98.7416 90.8828 101.93 78.5269C102.156 77.6533 102.403 76.6221 101.994 75.8194C101.557 74.9612 100.613 74.3196 99.6795 74.1102C93.8541 72.8033 85.9246 77.0035 84.3449 83.1433C83.4309 86.6955 84.1246 90.5073 83.4783 94.119C83.1271 96.0817 78.3712 96.8407 77.6165 95.0679C73.5657 85.552 78.2155 77.0427 76.2922 71.0528C74.7298 66.1868 68.8254 61.8626 73.3889 53.2092C77.3101 45.7738 86.4321 37.8046 77.3448 30.0015C73.0531 26.3164 63.4286 31.408 58.8057 31.489C55.7229 31.543 52.7265 30.9584 49.6497 30.1627L45.8379 28.7806Z" fill="black"/>
<path fill-rule="evenodd" clip-rule="evenodd" d="M31.9347 99.0706C37.9949 99.4867 37.0512 104.246 39.6735 105.408C43.6702 107.178 44.5756 101.943 44.8456 98.4356C45.2448 93.2503 37.1151 91.7514 34.9366 90.3033C33.7273 89.4994 32.4319 87.3071 32.2435 86.8442C32.0552 86.3813 32.3776 86.1207 32.5201 85.9978C32.6785 85.8611 33.4805 85.8571 33.4805 85.8571C33.5438 85.877 33.7698 85.9477 33.8195 85.9633C38.0251 87.2817 42.277 88.6599 46.0902 90.8663C52.1745 94.3869 51.0415 96.9801 51.0415 103.659C51.0415 110.338 54.6354 110.465 53.07 117.784C51.3893 125.641 42.3199 122.258 41.1486 122.061C31.0753 120.368 20.8027 112.4 28.1292 102.041L31.9347 99.0706Z" fill="black"/>
</svg>
